<?xml version="1.0" encoding="UTF-8" standalone="no"?>
<!-- Generator: Adobe Illustrator 21.1.0, SVG Export Plug-In . SVG Version: 6.00 Build 0)  -->

<svg
   xmlns:dc="http://purl.org/dc/elements/1.1/"
   xmlns:cc="http://creativecommons.org/ns#"
   xmlns:rdf="http://www.w3.org/1999/02/22-rdf-syntax-ns#"
   xmlns:svg="http://www.w3.org/2000/svg"
   xmlns="http://www.w3.org/2000/svg"
   xmlns:sodipodi="http://sodipodi.sourceforge.net/DTD/sodipodi-0.dtd"
   xmlns:inkscape="http://www.inkscape.org/namespaces/inkscape"
   version="1.1"
   id="Layer_1"
   x="0px"
   y="0px"
   viewBox="0 0 1648 616.17497"
   xml:space="preserve"
   sodipodi:docname="logo-white.svg"
   width="1648"
   height="616.17499"
   inkscape:version="0.92.2 5c3e80d, 2017-08-06"><metadata
     id="metadata47"><rdf:RDF><cc:Work
         rdf:about=""><dc:format>image/svg+xml</dc:format><dc:type
           rdf:resource="http://purl.org/dc/dcmitype/StillImage" /><dc:title></dc:title></cc:Work></rdf:RDF></metadata><defs
     id="defs45" /><sodipodi:namedview
     pagecolor="#ffffff"
     bordercolor="#666666"
     borderopacity="1"
     objecttolerance="10"
     gridtolerance="10"
     guidetolerance="10"
     inkscape:pageopacity="0"
     inkscape:pageshadow="2"
     inkscape:window-width="640"
     inkscape:window-height="480"
     id="namedview43"
     showgrid="false"
     inkscape:pagecheckerboard="true"
     fit-margin-top="0"
     fit-margin-left="0"
     fit-margin-right="0"
     fit-margin-bottom="0"
     inkscape:zoom="0.162"
     inkscape:cx="824"
     inkscape:cy="306.04998"
     inkscape:window-x="0"
     inkscape:window-y="0"
     inkscape:window-maximized="0"
     inkscape:current-layer="Layer_1" /><style
     type="text/css"
     id="style2">
	.st0{fill:#D8A62A;}
	.st1{fill:#FFFFFF;}
</style><g
     id="g40"
     transform="translate(-176,-109.325)"><g
       id="g12"><path
         class="st1"
         d="m 622.3,677.9 c 2.8,21.7 20.4,34.4 40.1,34.4 h 8.7 v 5.5 H 551.6 v -5.2 h 8.6 c 11.8,0 22.5,-11.6 21.4,-23.5 L 556.7,412.6 441.2,669.4 c 0,0 -15.3,33.4 -18.9,56.1 h -5.2 L 276.6,420.6 252.5,689.2 c -1.1,11.8 9.6,23.4 21.4,23.5 h 8.6 v 5.2 H 176 v -5.5 h 8.7 c 19.6,0 37.2,-12.7 40.1,-34.4 l 41.3,-352.5 h 5.1 L 424.6,657.1 574.5,325.7 h 5 z"
         id="path4"
         inkscape:connector-curvature="0"
         style="fill:#ffffff" /><path
         class="st0"
         d="m 764.4,717.9 0.1,-5.5 h 7.3 c 20.4,0 36.9,-13.3 37.4,-29.8 V 423.4 c -0.4,-16.5 -16.9,-29.8 -37.4,-29.8 h -7.3 l -0.1,-5.5 h 124.5 v 5.5 h -7.4 c -20,0 -36.3,12.8 -37.3,28.8 V 683 c 0.6,16.3 17.1,29.3 37.3,29.3 h 7.3 l 0.1,5.5 H 764.4 Z"
         id="path6"
         inkscape:connector-curvature="0"
         style="fill:#d8a62a" /><path
         class="st1"
         d="m 1382.7,388.1 -0.1,5.5 h -9.1 c -16.3,0 -29.6,12.2 -30.5,27.5 v 234.3 c 0,35.4 5.2,70.1 5.2,70.1 H 1343 L 1057.2,454.3 v 229.3 c 0.3,15.9 13.9,28.7 30.6,28.7 h 9.2 l 0.1,5.5 H 993 l 0.1,-5.5 h 9.2 c 16.7,0 30.3,-12.8 30.6,-28.7 v -235 c 0,-37.5 -5.3,-68.7 -5.3,-68.7 l 5.9,0.3 285.2,268.8 V 421.1 c -1,-15.3 -14.3,-27.5 -30.6,-27.5 h -9.1 l -0.1,-5.5 z"
         id="path8"
         inkscape:connector-curvature="0"
         style="fill:#ffffff" /><path
         class="st1"
         d="m 1777.4,680.3 c 11.2,22.6 27.7,32 42.4,32 h 4.2 v 5.5 h -112.9 v -5.4 h 4.4 c 12.5,0 26.6,-11.9 19.4,-33 l -30,-73.1 h -139 l -30.3,71.6 c -8.4,22 6.1,34.5 18.9,34.5 h 4.4 v 5.4 h -104.7 v -5.5 h 4.4 c 14.6,0 31.8,-9.3 43.1,-31.7 L 1615.3,437 c -0.2,0 20,-42.2 21.2,-56.6 h 5.2 z m -79.3,-90.5 -61.7,-150.4 -63.5,150.4 z"
         id="path10"
         inkscape:connector-curvature="0"
         style="fill:#ffffff" /></g><g
       id="g38"><g
         id="g18"><path
           class="st0"
           d="m 827,221.2 c -0.9,0 -1.8,-0.3 -2.6,-0.9 -1.2,-1 -29,-24.8 -29,-55 0,-30.2 27.8,-54 29,-55 1.5,-1.3 3.7,-1.3 5.2,0 1.2,1 29,24.8 29,55 0,30.2 -27.8,54 -29,55 -0.7,0.6 -1.6,0.9 -2.6,0.9 z m 0,-102.4 c -6.6,6.4 -23.6,25.1 -23.6,46.5 0,21.5 16.9,40.1 23.5,46.5 6.6,-6.4 23.6,-25.1 23.6,-46.5 0.1,-21.5 -16.9,-40.1 -23.5,-46.5 z"
           id="path14"
           inkscape:connector-curvature="0"
           style="fill:#d8a62a" /><path
           class="st0"
           d="m 827,325.2 c -0.9,0 -1.8,-0.3 -2.6,-0.9 -1.2,-1 -29,-24.8 -29,-55 0,-30.2 27.8,-54 29,-55 1.5,-1.3 3.7,-1.3 5.2,0 1.2,1 29,24.8 29,55 0,30.2 -27.8,54 -29,55 -0.7,0.6 -1.6,0.9 -2.6,0.9 z m 0,-102.5 c -6.6,6.4 -23.6,25.1 -23.6,46.5 0,21.5 16.9,40.1 23.5,46.5 6.6,-6.4 23.6,-25.1 23.6,-46.5 0.1,-21.4 -16.9,-40 -23.5,-46.5 z"
           id="path16"
           inkscape:connector-curvature="0"
           style="fill:#d8a62a" /></g><g
         id="g24"><path
           class="st0"
           d="m 879,248.8 c -30.2,0 -54,-27.8 -55,-29 -1.3,-1.5 -1.3,-3.7 0,-5.2 1,-1.2 24.8,-29 55,-29 30.2,0 54,27.8 55,29 1.3,1.5 1.3,3.7 0,5.2 -1,1.2 -24.8,29 -55,29 z m -46.5,-31.6 c 6.4,6.6 25.1,23.6 46.5,23.6 21.4,0 40.1,-17 46.5,-23.6 -6.4,-6.6 -25.1,-23.6 -46.5,-23.6 -21.5,0.1 -40.1,17 -46.5,23.6 z"
           id="path20"
           inkscape:connector-curvature="0"
           style="fill:#d8a62a" /><path
           class="st0"
           d="m 775.1,248.8 c -30.2,0 -54,-27.8 -55,-29 -1.3,-1.5 -1.3,-3.7 0,-5.2 1,-1.2 24.8,-29 55,-29 30.2,0 54,27.8 55,29 1.3,1.5 1.3,3.7 0,5.2 -1,1.2 -24.8,29 -55,29 z m -46.5,-31.6 c 6.4,6.6 25.1,23.6 46.5,23.6 21.5,0 40.1,-16.9 46.5,-23.5 -6.4,-6.6 -25.1,-23.6 -46.5,-23.6 -21.4,0 -40.1,16.9 -46.5,23.5 z"
           id="path22"
           inkscape:connector-curvature="0"
           style="fill:#d8a62a" /></g><g
         id="g30"><path
           class="st0"
           d="m 779.8,176 c -12.7,0 -19.5,-4.9 -22.5,-7.9 -9,-9 -7.8,-24.1 -7.8,-24.7 0.2,-1.9 1.7,-3.5 3.7,-3.7 0.1,0 0.9,-0.1 2.3,-0.1 12.7,0 19.5,4.9 22.5,7.9 9,9 7.8,24.1 7.8,24.7 -0.2,1.9 -1.7,3.5 -3.7,3.7 -0.1,0.1 -1,0.1 -2.3,0.1 z m -22.2,-28.2 c 0.2,4.1 1.3,10.6 5.4,14.7 4.2,4.2 10.7,5.2 14.7,5.4 -0.2,-4.1 -1.3,-10.6 -5.4,-14.7 -4.2,-4.1 -10.7,-5.2 -14.7,-5.4 z"
           id="path26"
           inkscape:connector-curvature="0"
           style="fill:#d8a62a" /><path
           class="st0"
           d="m 898.6,294.8 c -12.7,0 -19.5,-4.9 -22.5,-7.9 -9,-9 -7.8,-24.1 -7.8,-24.7 0.2,-1.9 1.7,-3.5 3.7,-3.7 0.1,0 0.9,-0.1 2.3,-0.1 12.7,0 19.5,4.9 22.5,7.9 9,9 7.8,24.1 7.8,24.7 -0.2,1.9 -1.7,3.5 -3.7,3.7 -0.1,0 -1,0.1 -2.3,0.1 z m -22.3,-28.3 c 0.2,4.1 1.3,10.6 5.4,14.7 4.2,4.2 10.7,5.2 14.7,5.4 -0.2,-4.1 -1.3,-10.6 -5.4,-14.7 -4.1,-4.1 -10.6,-5.1 -14.7,-5.4 z"
           id="path28"
           inkscape:connector-curvature="0"
           style="fill:#d8a62a" /></g><g
         id="g36"><path
           class="st0"
           d="m 874.3,176 v 0 c -1.4,0 -2.2,-0.1 -2.3,-0.1 -1.9,-0.2 -3.5,-1.7 -3.7,-3.7 -0.1,-0.6 -1.2,-15.7 7.8,-24.7 2.9,-2.9 9.8,-7.9 22.5,-7.9 1.4,0 2.2,0.1 2.3,0.1 1.9,0.2 3.5,1.7 3.7,3.7 0.1,0.6 1.2,15.7 -7.8,24.7 -3,3 -9.8,7.9 -22.5,7.9 z m 22.2,-28.2 c -4,0.2 -10.6,1.3 -14.7,5.4 -4.1,4.1 -5.2,10.7 -5.4,14.7 4,-0.2 10.6,-1.3 14.7,-5.4 4.1,-4.1 5.2,-10.7 5.4,-14.7 z"
           id="path32"
           inkscape:connector-curvature="0"
           style="fill:#d8a62a" /><path
           class="st0"
           d="m 755.5,294.8 v 0 c -1.4,0 -2.2,-0.1 -2.3,-0.1 -1.9,-0.2 -3.5,-1.7 -3.7,-3.7 -0.1,-0.6 -1.2,-15.7 7.8,-24.7 2.9,-2.9 9.8,-7.9 22.5,-7.9 1.3,0 2.2,0.1 2.3,0.1 1.9,0.2 3.5,1.7 3.7,3.7 0.1,0.6 1.2,15.7 -7.8,24.7 -3,3 -9.8,7.9 -22.5,7.9 z m 22.2,-28.3 c -4,0.2 -10.6,1.3 -14.7,5.4 -4.1,4.1 -5.2,10.7 -5.4,14.7 4,-0.2 10.6,-1.3 14.7,-5.4 4.1,-4 5.2,-10.6 5.4,-14.7 z"
           id="path34"
           inkscape:connector-curvature="0"
           style="fill:#d8a62a" /></g></g></g></svg>