<?xml version="1.0" encoding="UTF-8" standalone="no"?>
<svg
   xmlns:dc="http://purl.org/dc/elements/1.1/"
   xmlns:cc="http://creativecommons.org/ns#"
   xmlns:rdf="http://www.w3.org/1999/02/22-rdf-syntax-ns#"
   xmlns:svg="http://www.w3.org/2000/svg"
   xmlns="http://www.w3.org/2000/svg"
   height="616.17499"
   width="1648"
   xml:space="preserve"
   viewBox="0 0 1648 616.17497"
   y="0px"
   x="0px"
   id="Layer_1"
   version="1.1"><metadata
     id="metadata43"><rdf:RDF><cc:Work
         rdf:about=""><dc:format>image/svg+xml</dc:format><dc:type
           rdf:resource="http://purl.org/dc/dcmitype/StillImage" /><dc:title></dc:title></cc:Work></rdf:RDF></metadata><defs
     id="defs41" /><style
     id="style2"
     type="text/css">
	.st0{fill:#D8A62A;}
	.st1{fill:#FFFFFF;}
</style><path
     style="fill:#333333"
     id="path4"
     d="m 446.3,568.575 c 2.8,21.7 20.4,34.4 40.1,34.4 h 8.7 v 5.5 H 375.6 v -5.2 h 8.6 c 11.8,0 22.5,-11.6 21.4,-23.5 l -24.9,-276.5 -115.5,256.8 c 0,0 -15.3,33.4 -18.9,56.1 h -5.2 l -140.5,-304.9 -24.1,268.6 c -1.1,11.8 9.6,23.4 21.4,23.5 h 8.6 v 5.2 H 0 v -5.5 h 8.7 c 19.6,0 37.2,-12.7 40.1,-34.4 l 41.3,-352.5 h 5.1 l 153.4,331.6 149.9,-331.4 h 5 z" /><path
     style="fill:#333333"
     id="path6"
     d="m 588.4,608.575 0.1,-5.5 h 7.3 c 20.4,0 36.9,-13.3 37.4,-29.8 v -259.2 c -0.4,-16.5 -16.9,-29.8 -37.4,-29.8 h -7.3 l -0.1,-5.5 h 124.5 v 5.5 h -7.4 c -20,0 -36.3,12.8 -37.3,28.8 v 260.6 c 0.6,16.3 17.1,29.3 37.3,29.3 h 7.3 l 0.1,5.5 H 588.4 Z"
     class="st0" /><path
     style="fill:#333333"
     id="path8"
     d="m 1206.7,278.775 -0.1,5.5 h -9.1 c -16.3,0 -29.6,12.2 -30.5,27.5 v 234.3 c 0,35.4 5.2,70.1 5.2,70.1 h -5.2 l -285.8,-271.2 v 229.3 c 0.3,15.9 13.9,28.7 30.6,28.7 h 9.2 l 0.1,5.5 H 817 l 0.1,-5.5 h 9.2 c 16.7,0 30.3,-12.8 30.6,-28.7 v -235 c 0,-37.5 -5.3,-68.7 -5.3,-68.7 l 5.9,0.3 285.2,268.8 v -227.9 c -1,-15.3 -14.3,-27.5 -30.6,-27.5 h -9.1 l -0.1,-5.5 z" /><path
     style="fill:#333333"
     id="path10"
     d="m 1601.4,570.975 c 11.2,22.6 27.7,32 42.4,32 h 4.2 v 5.5 h -112.9 v -5.4 h 4.4 c 12.5,0 26.6,-11.9 19.4,-33 l -30,-73.1 h -139 l -30.3,71.6 c -8.4,22 6.1,34.5 18.9,34.5 h 4.4 v 5.4 h -104.7 v -5.5 h 4.4 c 14.6,0 31.8,-9.3 43.1,-31.7 l 113.6,-243.6 c -0.2,0 20,-42.2 21.2,-56.6 h 5.2 z m -79.3,-90.5 -61.7,-150.4 -63.5,150.4 z" /><g
     transform="translate(-176,-109.325)"
     style="fill:#333333"
     id="g36"><g
       style="fill:#333333"
       id="g16"><path
         style="fill:#333333"
         id="path12"
         d="m 827,221.2 c -0.9,0 -1.8,-0.3 -2.6,-0.9 -1.2,-1 -29,-24.8 -29,-55 0,-30.2 27.8,-54 29,-55 1.5,-1.3 3.7,-1.3 5.2,0 1.2,1 29,24.8 29,55 0,30.2 -27.8,54 -29,55 -0.7,0.6 -1.6,0.9 -2.6,0.9 z m 0,-102.4 c -6.6,6.4 -23.6,25.1 -23.6,46.5 0,21.5 16.9,40.1 23.5,46.5 6.6,-6.4 23.6,-25.1 23.6,-46.5 0.1,-21.5 -16.9,-40.1 -23.5,-46.5 z"
         class="st0" /><path
         style="fill:#333333"
         id="path14"
         d="m 827,325.2 c -0.9,0 -1.8,-0.3 -2.6,-0.9 -1.2,-1 -29,-24.8 -29,-55 0,-30.2 27.8,-54 29,-55 1.5,-1.3 3.7,-1.3 5.2,0 1.2,1 29,24.8 29,55 0,30.2 -27.8,54 -29,55 -0.7,0.6 -1.6,0.9 -2.6,0.9 z m 0,-102.5 c -6.6,6.4 -23.6,25.1 -23.6,46.5 0,21.5 16.9,40.1 23.5,46.5 6.6,-6.4 23.6,-25.1 23.6,-46.5 0.1,-21.4 -16.9,-40 -23.5,-46.5 z"
         class="st0" /></g><g
       style="fill:#333333"
       id="g22"><path
         style="fill:#333333"
         id="path18"
         d="m 879,248.8 c -30.2,0 -54,-27.8 -55,-29 -1.3,-1.5 -1.3,-3.7 0,-5.2 1,-1.2 24.8,-29 55,-29 30.2,0 54,27.8 55,29 1.3,1.5 1.3,3.7 0,5.2 -1,1.2 -24.8,29 -55,29 z m -46.5,-31.6 c 6.4,6.6 25.1,23.6 46.5,23.6 21.4,0 40.1,-17 46.5,-23.6 -6.4,-6.6 -25.1,-23.6 -46.5,-23.6 -21.5,0.1 -40.1,17 -46.5,23.6 z"
         class="st0" /><path
         style="fill:#333333"
         id="path20"
         d="m 775.1,248.8 c -30.2,0 -54,-27.8 -55,-29 -1.3,-1.5 -1.3,-3.7 0,-5.2 1,-1.2 24.8,-29 55,-29 30.2,0 54,27.8 55,29 1.3,1.5 1.3,3.7 0,5.2 -1,1.2 -24.8,29 -55,29 z m -46.5,-31.6 c 6.4,6.6 25.1,23.6 46.5,23.6 21.5,0 40.1,-16.9 46.5,-23.5 -6.4,-6.6 -25.1,-23.6 -46.5,-23.6 -21.4,0 -40.1,16.9 -46.5,23.5 z"
         class="st0" /></g><g
       style="fill:#333333"
       id="g28"><path
         style="fill:#333333"
         id="path24"
         d="m 779.8,176 c -12.7,0 -19.5,-4.9 -22.5,-7.9 -9,-9 -7.8,-24.1 -7.8,-24.7 0.2,-1.9 1.7,-3.5 3.7,-3.7 0.1,0 0.9,-0.1 2.3,-0.1 12.7,0 19.5,4.9 22.5,7.9 9,9 7.8,24.1 7.8,24.7 -0.2,1.9 -1.7,3.5 -3.7,3.7 -0.1,0.1 -1,0.1 -2.3,0.1 z m -22.2,-28.2 c 0.2,4.1 1.3,10.6 5.4,14.7 4.2,4.2 10.7,5.2 14.7,5.4 -0.2,-4.1 -1.3,-10.6 -5.4,-14.7 -4.2,-4.1 -10.7,-5.2 -14.7,-5.4 z"
         class="st0" /><path
         style="fill:#333333"
         id="path26"
         d="m 898.6,294.8 c -12.7,0 -19.5,-4.9 -22.5,-7.9 -9,-9 -7.8,-24.1 -7.8,-24.7 0.2,-1.9 1.7,-3.5 3.7,-3.7 0.1,0 0.9,-0.1 2.3,-0.1 12.7,0 19.5,4.9 22.5,7.9 9,9 7.8,24.1 7.8,24.7 -0.2,1.9 -1.7,3.5 -3.7,3.7 -0.1,0 -1,0.1 -2.3,0.1 z m -22.3,-28.3 c 0.2,4.1 1.3,10.6 5.4,14.7 4.2,4.2 10.7,5.2 14.7,5.4 -0.2,-4.1 -1.3,-10.6 -5.4,-14.7 -4.1,-4.1 -10.6,-5.1 -14.7,-5.4 z"
         class="st0" /></g><g
       style="fill:#333333"
       id="g34"><path
         style="fill:#333333"
         id="path30"
         d="m 874.3,176 v 0 c -1.4,0 -2.2,-0.1 -2.3,-0.1 -1.9,-0.2 -3.5,-1.7 -3.7,-3.7 -0.1,-0.6 -1.2,-15.7 7.8,-24.7 2.9,-2.9 9.8,-7.9 22.5,-7.9 1.4,0 2.2,0.1 2.3,0.1 1.9,0.2 3.5,1.7 3.7,3.7 0.1,0.6 1.2,15.7 -7.8,24.7 -3,3 -9.8,7.9 -22.5,7.9 z m 22.2,-28.2 c -4,0.2 -10.6,1.3 -14.7,5.4 -4.1,4.1 -5.2,10.7 -5.4,14.7 4,-0.2 10.6,-1.3 14.7,-5.4 4.1,-4.1 5.2,-10.7 5.4,-14.7 z"
         class="st0" /><path
         style="fill:#333333"
         id="path32"
         d="m 755.5,294.8 v 0 c -1.4,0 -2.2,-0.1 -2.3,-0.1 -1.9,-0.2 -3.5,-1.7 -3.7,-3.7 -0.1,-0.6 -1.2,-15.7 7.8,-24.7 2.9,-2.9 9.8,-7.9 22.5,-7.9 1.3,0 2.2,0.1 2.3,0.1 1.9,0.2 3.5,1.7 3.7,3.7 0.1,0.6 1.2,15.7 -7.8,24.7 -3,3 -9.8,7.9 -22.5,7.9 z m 22.2,-28.3 c -4,0.2 -10.6,1.3 -14.7,5.4 -4.1,4.1 -5.2,10.7 -5.4,14.7 4,-0.2 10.6,-1.3 14.7,-5.4 4.1,-4 5.2,-10.6 5.4,-14.7 z"
         class="st0" /></g></g></svg>